<svg width="203" height="203" viewBox="0 0 203 203" fill="none" xmlns="http://www.w3.org/2000/svg">
<rect width="203" height="203" rx="40" fill="url(#paint0_radial_11_2)"/>
<path d="M98.7232 160.965C99.6598 162.033 100.507 163.207 101.244 164.484L110.507 180.53C100.874 181.628 90.8763 180.972 80.9434 178.31C71.2741 175.72 62.5018 171.452 54.8536 165.907L71.2427 156.445C72.4336 155.758 73.6624 155.195 74.9135 154.752C78.4314 156.505 82.1758 157.935 86.1198 158.992C90.3248 160.119 94.5454 160.764 98.7232 160.965Z" fill="#F9FAFB"/>
<path d="M47.206 70.889C47.803 71.9231 48.3048 72.9861 48.7171 74.0671C46.766 77.8287 45.1889 81.8578 44.047 86.1196C42.905 90.3815 42.2562 94.6593 42.0652 98.8925C41.1674 99.6227 40.2015 100.293 39.1672 100.89L22.508 110.507C21.4096 100.874 22.067 90.876 24.7284 80.9433C27.39 71.0102 31.8194 62.0229 37.5875 54.2293L47.206 70.889Z" fill="#F9FAFB"/>
<path d="M180.614 93.2992C181.592 102.695 180.902 112.426 178.311 122.095C175.72 131.765 171.452 140.536 165.907 148.184L156.799 132.41C155.966 130.967 155.317 129.469 154.841 127.943C156.554 124.478 157.954 120.795 158.992 116.919C160.031 113.043 160.66 109.154 160.909 105.297C162.084 104.213 163.396 103.241 164.838 102.408L180.614 93.2992Z" fill="#F9FAFB"/>
<path d="M122.096 24.7283C132.028 27.3897 141.015 31.8192 148.809 37.5871L132.763 46.8525C131.486 47.5897 130.166 48.1825 128.821 48.6391C125.102 46.7239 121.124 45.1735 116.919 44.0468C112.975 42.99 109.018 42.3551 105.095 42.1148C104.233 41.1056 103.45 40.0044 102.762 38.8137L93.2996 22.4243C102.696 21.4459 112.426 22.1374 122.096 24.7283Z" fill="#F9FAFB"/>
<path d="M149.676 86.7059C131.567 97.1613 125.362 120.317 135.818 138.427L149.301 161.78C152.31 166.992 150.524 173.656 145.313 176.664C140.101 179.673 133.437 177.888 130.429 172.676L116.945 149.323C106.49 131.213 83.3338 125.009 65.2246 135.464L41.8711 148.947C36.6596 151.956 29.9957 150.171 26.9869 144.959C23.978 139.748 25.7636 133.084 30.9751 130.075L54.3286 116.592C72.4378 106.136 78.6425 82.9802 68.1872 64.8709L54.704 41.5174C51.6952 36.3059 53.4807 29.642 58.6922 26.6332C63.9037 23.6243 70.5676 25.4099 73.5764 30.6214L87.0596 53.9749C97.515 72.0842 120.671 78.2888 138.78 67.8335L162.134 54.3503C167.345 51.3415 174.009 53.127 177.018 58.3385C180.027 63.55 178.241 70.2139 173.03 73.2227L149.676 86.7059Z" fill="#F9FAFB"/>
<defs>
<radialGradient id="paint0_radial_11_2" cx="0" cy="0" r="1" gradientUnits="userSpaceOnUse" gradientTransform="translate(101.5 101.5) rotate(90) scale(157.5)">
<stop stop-color="#FE2E66"/>
<stop offset="1" stop-color="#FF89A8"/>
</radialGradient>
</defs>
</svg>
